<svg xmlns="http://www.w3.org/2000/svg" height="48" viewBox="0 -960 960 960" width="48"><path d="M480-518q-50.012 0-83.006-32.994Q364-583.987 364-634.5t32.994-83.006Q429.988-750 480-750q50.013 0 83.006 32.494Q596-685.013 596-634.5t-32.994 83.506Q530.013-518 480-518ZM197-202v-62q0-26 15.094-47.375T252-345q59-27 115.923-40.5t112-13.5Q535-399 592-385.5t115.476 40.898q25.503 11.959 40.514 33.28Q763-290 763-264v62H197Zm35-35h496v-27q0-15-9.325-28.174T692-314q-52-25-105.187-37.5Q533.627-364 480-364q-53.626 0-106.813 12.5Q320-339 269-314q-18 9-27.5 21.81Q232-279.379 232-264v27Zm248-316q34 0 57.5-23.5T561-634q0-34-23.5-57.5T480-715q-34 0-57.5 23.5T399-634q0 34 23.5 57.5T480-553Zm0-81Zm0 397Z"/></svg>