<svg xmlns="http://www.w3.org/2000/svg" height="48" viewBox="0 -960 960 960" width="48"><path d="M430-350.5q16 16.5 45.5 14.5t41.5-21l213-291-293 212q-20 13-21.5 41t14.5 44.5ZM478.816-760Q535-760 583-745.5t95 44.5l-29 24q-39-25-81.5-36.5T479.256-725q-135.75 0-230.503 95.566Q154-533.867 154-397.928 154-354 165-313t33.267 78H760q21-36 33-78.325 12-42.326 12-87.675 0-37-10.5-83.5T759-568l24-28q33.154 53.85 44.577 100.425Q839-449 840-402q0 52-11.5 96.5T792-216q-5 8-11.831 12-6.83 4-19.169 4H197q-9.475 0-17.237-5.5Q172-211 167-220q-19-32-33.5-76.5T119-398.612q0-73.388 27.903-138.557 27.902-65.169 76.412-114.829 48.51-49.66 114.778-78.831Q404.36-760 478.816-760ZM480-479Z"/></svg>