<svg xmlns="http://www.w3.org/2000/svg" height="48" viewBox="0 -960 960 960" width="48"><path d="M257-295h227v-79H257v79Zm4-284h213v-32H261v32Zm0-85h213v-32H261v32Zm335 122v-35h80v-121h-80v-35h81l33 33v46h71v35h-71v43l-34 34h-80ZM446-409h-35v-105h150v-247H260.467q-36.692 0-61.58 24.888Q174-711.225 174-675v75q0 36.225 24.887 61.112Q223.775-514 260-514h70v105h-35v-71h-48q-46.55-5-77.275-39.225Q139-553.45 139-600v-75q0-49.912 35.544-85.456Q210.087-796 260-796h336v317H446v70ZM222-260v-149h297v149H222Zm146-378Zm116 343H257h227Z"/></svg>